<svg xmlns="http://www.w3.org/2000/svg" viewBox="0 0 512 512">
  <defs>
    <linearGradient id="bg-gradient" x1="0%" y1="0%" x2="100%" y2="100%">
      <stop offset="0%" style="stop-color:#10B981"/>
      <stop offset="100%" style="stop-color:#059669"/>
    </linearGradient>
  </defs>
  <!-- Background circle -->
  <circle cx="256" cy="256" r="256" fill="url(#bg-gradient)"/>
  <!-- Book icon -->
  <g transform="translate(96, 96) scale(0.625)">
    <path fill="white" d="M256 48C176 48 112 80 112 80v352s64-32 144-32 144 32 144 32V80s-64-32-144-32z"/>
    <path fill="rgba(255,255,255,0.8)" d="M256 48v352"/>
    <path fill="none" stroke="white" stroke-width="24" stroke-linecap="round" stroke-linejoin="round" d="M256 48C176 48 112 80 112 80v352s64-32 144-32 144 32 144 32V80s-64-32-144-32z"/>
    <line x1="256" y1="48" x2="256" y2="400" stroke="rgba(16,185,129,0.3)" stroke-width="4"/>
    <!-- Decorative lines on pages -->
    <g stroke="rgba(16,185,129,0.4)" stroke-width="8" stroke-linecap="round">
      <line x1="152" y1="140" x2="220" y2="140"/>
      <line x1="152" y1="180" x2="200" y2="180"/>
      <line x1="152" y1="220" x2="210" y2="220"/>
      <line x1="152" y1="260" x2="190" y2="260"/>
      <line x1="292" y1="140" x2="360" y2="140"/>
      <line x1="292" y1="180" x2="340" y2="180"/>
      <line x1="292" y1="220" x2="350" y2="220"/>
      <line x1="292" y1="260" x2="330" y2="260"/>
    </g>
  </g>
</svg>
